<?xml version="1.0" encoding="iso-8859-1"?>
<!-- Generator: Adobe Illustrator 16.0.0, SVG Export Plug-In . SVG Version: 6.00 Build 0)  -->
<!DOCTYPE svg PUBLIC "-//W3C//DTD SVG 1.1//EN" "http://www.w3.org/Graphics/SVG/1.1/DTD/svg11.dtd">
<svg version="1.1" id="Layer_1" xmlns="http://www.w3.org/2000/svg" xmlns:xlink="http://www.w3.org/1999/xlink" x="0px" y="0px"
	 width="800px" height="800px" viewBox="0 0 800 800" style="enable-background:new 0 0 800 800;" xml:space="preserve">

<path style="fill:#231F20;" d="M400,56.111C210.075,56.111,56.111,210.075,56.111,400S210.075,743.889,400,743.889
	S743.889,589.925,743.889,400S589.925,56.111,400,56.111z M607.638,423H423v184.638c0,12.885-10.115,23.33-23,23.33
	c-12.885,0-23-10.445-23-23.33V423H192.362c-12.885,0-23.33-10.115-23.33-23c0-12.885,10.445-23,23.33-23H377V192.362
	c0-12.885,10.115-23.33,23-23.33c12.885,0,23,10.445,23,23.33V377h184.638c12.885,0,23.33,10.115,23.33,23
	C630.968,412.885,620.522,423,607.638,423z"/>
</svg>
